# Lusion Astronaut Export: helmet_glass
g helmet_glass
v -0.103981 1.584313 0.111745
v -0.079847 1.577903 0.128461
v -0.087510 1.608463 0.146303
v -0.112080 1.615658 0.127541
v -0.054841 1.573436 0.140286
v -0.061742 1.604746 0.160089
v -0.065734 1.646019 0.174542
v -0.092444 1.646890 0.158733
v -0.035062 1.687460 0.189302
v -0.035567 1.729519 0.184916
v -0.067963 1.726154 0.175568
v -0.067394 1.686831 0.179153
v -0.094089 1.685388 0.163388
v -0.033967 1.645604 0.184328
v -0.063535 1.764798 0.162820
v -0.088902 1.759603 0.152655
v -0.093366 1.721673 0.162403
v -0.054549 1.796758 0.142974
v -0.079094 1.791506 0.134336
v -0.113096 1.753250 0.137223
v -0.118678 1.717768 0.141878
v -0.117356 1.647807 0.136456
v -0.102218 1.784918 0.122583
v -0.121789 1.591981 0.093648
v -0.130146 1.621507 0.106909
v -0.147137 1.610779 0.060377
v -0.137413 1.602009 0.074219
v -0.145349 1.627253 0.082394
v -0.158679 1.638145 0.056644
v -0.118842 1.684305 0.141994
v -0.136982 1.717903 0.119970
v -0.137453 1.681693 0.118698
v -0.160863 1.720511 0.065798
v -0.162275 1.679834 0.060391
v -0.151640 1.679131 0.090597
v -0.151328 1.717455 0.093447
v -0.135218 1.650397 0.114024
v -0.149693 1.653027 0.087431
v -0.147280 1.742873 0.093250
v -0.132796 1.747841 0.116530
v -0.139082 1.766365 0.090094
v -0.153586 1.750936 0.072401
v -0.122542 1.776436 0.108051
v 0.147255 1.742870 0.093242
v 0.151268 1.717462 0.093428
v 0.160913 1.720518 0.065794
v 0.153646 1.750997 0.072374
v 0.139102 1.766511 0.090031
v 0.151565 1.677866 0.090537
v 0.162359 1.679827 0.060431
v 0.149623 1.653215 0.087424
v 0.158743 1.638131 0.056636
v 0.145185 1.627058 0.082278
v 0.137423 1.601921 0.074179
v 0.147137 1.610769 0.060362
v 0.132796 1.747841 0.116532
v 0.122572 1.776386 0.108089
v 0.088570 1.760101 0.152706
v 0.113115 1.753264 0.137248
v 0.102237 1.785025 0.122585
v 0.079134 1.791432 0.134483
v 0.031916 1.769269 0.169868
v 0.061756 1.765061 0.163730
v 0.054564 1.796861 0.142966
v 0.028429 1.800049 0.149204
v 0.137259 1.681682 0.118880
v 0.137398 1.717882 0.119334
v 0.135169 1.650408 0.113995
v 0.130022 1.621433 0.106901
v 0.121824 1.592077 0.093729
v 0.079852 1.577853 0.128467
v 0.087426 1.608523 0.146197
v 0.061707 1.604781 0.160093
v 0.054831 1.573066 0.140108
v 0.103897 1.584469 0.111726
v 0.111971 1.615719 0.127454
v 0.068018 1.726183 0.175694
v 0.092612 1.722757 0.162671
v 0.067438 1.686824 0.179252
v 0.094079 1.685388 0.163380
v 0.065749 1.646012 0.174581
v 0.092365 1.646918 0.158636
v 0.118817 1.717533 0.141793
v 0.118807 1.684305 0.141967
v 0.117266 1.647832 0.136386
v -0.032724 1.768387 0.170119
v -0.028429 1.799736 0.149382
v -0.000000 1.802206 0.150696
v -0.000015 1.770424 0.172148
v 0.035705 1.729367 0.184935
v -0.000000 1.730937 0.187517
v 0.035071 1.687457 0.189385
v -0.000000 1.688953 0.192454
v 0.033967 1.645593 0.184367
v 0.031084 1.602635 0.168735
v 0.027928 1.569968 0.147219
v -0.000000 1.645874 0.187204
v -0.031029 1.602045 0.168196
v -0.000020 1.601462 0.170805
v -0.027938 1.570035 0.147231
v -0.000000 1.569328 0.150043
vt 0.840900 0.601500
vt 0.845100 0.575900
vt 0.817500 0.575700
vt 0.813300 0.600400
vt 0.847900 0.551500
vt 0.819200 0.552500
vt 0.786200 0.553400
vt 0.786800 0.576300
vt 0.753900 0.530500
vt 0.722200 0.532500
vt 0.725800 0.556900
vt 0.755300 0.554800
vt 0.757400 0.577100
vt 0.785500 0.529000
vt 0.694900 0.557800
vt 0.700200 0.578800
vt 0.730000 0.577800
vt 0.665300 0.557400
vt 0.671100 0.579500
vt 0.706100 0.600700
vt 0.733700 0.601700
vt 0.787500 0.601200
vt 0.678100 0.601100
vt 0.836000 0.623400
vt 0.810300 0.622300
vt 0.823400 0.658800
vt 0.829300 0.644600
vt 0.807700 0.645200
vt 0.801300 0.669000
vt 0.759300 0.601000
vt 0.734200 0.622900
vt 0.762300 0.623000
vt 0.732800 0.667700
vt 0.766700 0.671000
vt 0.765700 0.646600
vt 0.735000 0.645600
vt 0.786900 0.622900
vt 0.786700 0.646000
vt 0.714600 0.643600
vt 0.710700 0.622500
vt 0.695000 0.641200
vt 0.707700 0.659900
vt 0.686300 0.621500
vt 0.703800 0.370600
vt 0.724000 0.367100
vt 0.720000 0.345200
vt 0.695500 0.354900
vt 0.684300 0.374500
vt 0.755500 0.363600
vt 0.753600 0.339200
vt 0.775300 0.362500
vt 0.788200 0.338500
vt 0.796600 0.361700
vt 0.818100 0.360600
vt 0.811000 0.346900
vt 0.701500 0.392000
vt 0.677300 0.394900
vt 0.694100 0.436700
vt 0.698600 0.414100
vt 0.670600 0.415900
vt 0.665500 0.438000
vt 0.687800 0.483000
vt 0.690800 0.459300
vt 0.661200 0.460500
vt 0.659100 0.484000
vt 0.753000 0.387600
vt 0.724900 0.389100
vt 0.777500 0.385500
vt 0.800900 0.384400
vt 0.826300 0.381200
vt 0.839300 0.427800
vt 0.811700 0.430200
vt 0.815300 0.453200
vt 0.844300 0.451900
vt 0.832900 0.402700
vt 0.805600 0.405900
vt 0.721700 0.456200
vt 0.723500 0.435700
vt 0.751400 0.456000
vt 0.751700 0.433500
vt 0.782300 0.454900
vt 0.781000 0.432000
vt 0.726300 0.410800
vt 0.751700 0.409500
vt 0.779800 0.407100
vt 0.690500 0.533400
vt 0.661400 0.534100
vt 0.657600 0.509200
vt 0.687600 0.508000
vt 0.720200 0.480700
vt 0.720000 0.506700
vt 0.751900 0.480300
vt 0.751900 0.505400
vt 0.783500 0.479300
vt 0.818100 0.478200
vt 0.848100 0.476400
vt 0.784200 0.504100
vt 0.820700 0.527300
vt 0.820300 0.502700
vt 0.850100 0.526700
vt 0.850100 0.501500
vn -1.673869 -2.825045 -0.863130
vn -1.494516 -2.878121 -0.754336
vn -2.006499 -1.824989 0.446667
vn -2.287366 -1.745881 0.236108
vn -1.326108 -2.904868 -0.646332
vn -1.659798 -1.868118 0.629500
vn -1.701118 -1.440765 0.779993
vn -2.063733 -1.422418 0.575718
vn -1.294447 -1.001260 0.963397
vn -1.287691 -0.522142 0.910713
vn -1.675433 -0.580222 0.805785
vn -1.709327 -1.025684 0.834610
vn -2.067251 -1.068395 0.631828
vn -1.284787 -1.449939 0.908341
vn -1.605970 -0.088773 0.651469
vn -1.912300 -0.168119 0.531294
vn -2.015042 -0.677916 0.642286
vn -1.313823 0.957032 -0.702575
vn -1.500770 0.919563 -0.781095
vn -2.205619 -0.278144 0.356459
vn -2.312717 -0.769356 0.414195
vn -2.339240 -1.410266 0.335807
vn -1.674149 0.865831 -0.874730
vn -1.809389 -2.767798 -1.050138
vn -2.501116 -1.672729 0.000987
vn -2.167537 -2.298568 -1.831033
vn -1.934970 -2.683150 -1.239517
vn -2.640656 -1.602556 -0.204958
vn -2.652047 -1.434570 -1.879586
vn -2.344098 -1.101993 0.393104
vn -2.561086 -0.812127 0.122436
vn -2.580797 -1.123319 0.096512
vn -2.693982 -0.604586 -1.831868
vn -2.723018 -0.937223 -1.852563
vn -2.745074 -1.117242 -0.206540
vn -2.737592 -0.845665 -0.189008
vn -2.559690 -1.376668 0.065490
vn -2.714475 -1.315609 -0.195819
vn -2.662377 -0.491702 -0.159876
vn -2.473867 -0.381855 0.100027
vn -2.010631 0.677353 -1.226819
vn -2.387317 0.149446 -1.744823
vn -1.861877 0.781242 -0.980186
vn 0.833556 -0.494740 -0.157767
vn 0.908380 -0.848762 -0.187295
vn 0.868176 -0.604646 -1.825760
vn 0.563298 0.146289 -1.740386
vn 0.179241 0.679497 -1.224226
vn 0.914299 -1.123319 -0.202761
vn 0.898385 -0.937223 -1.843995
vn 0.883197 -1.321686 -0.192523
vn 0.826576 -1.437608 -1.871721
vn 0.810272 -1.602497 -0.201223
vn 0.106875 -2.683447 -1.234684
vn 0.343853 -2.297794 -1.824750
vn 0.646498 -0.384774 0.099719
vn 0.035569 0.779932 -0.975792
vn 0.082362 -0.162162 0.528966
vn 0.378864 -0.281063 0.356151
vn -0.156348 0.866903 -0.879432
vn -0.326599 0.918848 -0.778283
vn -0.575080 -0.052554 0.739173
vn -0.236588 -0.088594 0.657138
vn -0.506567 0.956615 -0.711231
vn -0.678884 0.963108 -0.588595
vn 0.751195 -1.123319 0.097874
vn 0.736956 -0.815165 0.116241
vn 0.729920 -1.379706 0.066061
vn 0.670843 -1.672551 0.003667
vn -0.017924 -2.767441 -1.037000
vn -0.316269 -2.872402 -0.753325
vn 0.182257 -1.822130 0.444997
vn -0.162657 -1.867880 0.626775
vn -0.500648 -2.905642 -0.653055
vn -0.150764 -2.823317 -0.862647
vn 0.456926 -1.745762 0.238129
vn -0.153500 -0.583141 0.806532
vn 0.184602 -0.671721 0.642330
vn -0.115753 -1.028722 0.832940
vn 0.242283 -1.068395 0.629236
vn -0.121337 -1.440765 0.777269
vn 0.238542 -1.425515 0.572334
vn 0.484957 -0.772453 0.413800
vn 0.514495 -1.101993 0.394071
vn 0.508967 -1.413304 0.336510
vn -1.266137 -0.061251 0.741282
vn -1.158816 0.959296 -0.576073
vn -0.925467 0.979907 -0.601250
vn -0.916365 -0.049397 0.770326
vn -0.546770 -0.522201 0.911856
vn -0.914969 -0.500816 0.941735
vn -0.537054 -1.001260 0.963968
vn -0.915862 -0.982973 0.999999
vn -0.545263 -1.449820 0.908648
vn -0.558552 -1.880151 0.750114
vn -0.718864 -2.923990 -0.572733
vn -0.917817 -1.446901 0.944679
vn -1.270939 -1.883427 0.748268
vn -0.918263 -1.880449 0.785749
vn -1.119449 -2.923751 -0.576424
vn -0.917649 -2.919641 -0.512580
f 3/3/3 1/1/1 2/2/2
f 3/3/3 5/5/5 6/6/6
f 3/3/3 7/7/7 8/8/8
f 10/10/10 12/12/12 9/9/9
f 13/13/13 7/7/7 12/12/12
f 7/7/7 9/9/9 12/12/12
f 15/15/15 17/17/17 11/11/11
f 12/12/12 17/17/17 13/13/13
f 18/18/18 16/16/16 15/15/15
f 21/21/21 16/16/16 20/20/20
f 4/4/4 8/8/8 22/22/22
f 20/20/20 19/19/19 23/23/23
f 24/24/24 4/4/4 25/25/25
f 29/29/29 27/27/27 28/28/28
f 28/28/28 24/24/24 25/25/25
f 22/22/22 13/13/13 30/30/30
f 30/30/30 31/31/31 32/32/32
f 13/13/13 21/21/21 30/30/30
f 33/33/33 35/35/35 36/36/36
f 31/31/31 35/35/35 32/32/32
f 25/25/25 38/38/38 28/28/28
f 22/22/22 25/25/25 4/4/4
f 38/38/38 34/34/34 29/29/29
f 38/38/38 32/32/32 35/35/35
f 29/29/29 28/28/28 38/38/38
f 31/31/31 39/39/39 36/36/36
f 37/37/37 30/30/30 32/32/32
f 31/31/31 20/20/20 40/40/40
f 39/39/39 41/41/41 42/42/42
f 40/40/40 41/41/41 39/39/39
f 33/33/33 39/39/39 42/42/42
f 43/43/43 20/20/20 23/23/23
f 44/44/44 46/46/46 47/47/47
f 47/47/47 48/48/48 44/44/44
f 49/49/49 46/46/46 45/45/45
f 50/50/50 51/51/51 52/52/52
f 54/54/54 52/52/52 53/53/53
f 51/51/51 53/53/53 52/52/52
f 56/56/56 48/48/48 57/57/57
f 59/59/59 61/61/61 58/58/58
f 57/57/57 59/59/59 56/56/56
f 65/65/65 63/63/63 64/64/64
f 61/61/61 63/63/63 58/58/58
f 66/66/66 45/45/45 67/67/67
f 44/44/44 67/67/67 45/45/45
f 51/51/51 66/66/66 68/68/68
f 54/54/54 69/69/69 70/70/70
f 53/53/53 68/68/68 69/69/69
f 71/71/71 73/73/73 74/74/74
f 76/76/76 71/71/71 75/75/75
f 69/69/69 75/75/75 70/70/70
f 77/77/77 58/58/58 63/63/63
f 79/79/79 78/78/78 77/77/77
f 82/82/82 79/79/79 81/81/81
f 73/73/73 82/82/82 81/81/81
f 59/59/59 78/78/78 83/83/83
f 67/67/67 59/59/59 83/83/83
f 83/83/83 80/80/80 84/84/84
f 66/66/66 83/83/83 84/84/84
f 84/84/84 82/82/82 85/85/85
f 84/84/84 68/68/68 66/66/66
f 76/76/76 82/82/82 72/72/72
f 68/68/68 76/76/76 69/69/69
f 18/18/18 86/86/86 87/87/87
f 86/86/86 11/11/11 10/10/10
f 89/89/89 65/65/65 88/88/88
f 89/89/89 87/87/87 86/86/86
f 62/62/62 77/77/77 63/63/63
f 86/86/86 91/91/91 89/89/89
f 90/90/90 89/89/89 91/91/91
f 79/79/79 90/90/90 92/92/92
f 93/93/93 10/10/10 9/9/9
f 91/91/91 92/92/92 90/90/90
f 94/94/94 79/79/79 92/92/92
f 95/95/95 81/81/81 94/94/94
f 74/74/74 95/95/95 96/96/96
f 93/93/93 14/14/14 97/97/97
f 92/92/92 97/97/97 94/94/94
f 97/97/97 98/98/98 99/99/99
f 97/97/97 95/95/95 94/94/94
f 100/100/100 99/99/99 98/98/98
f 95/95/95 101/101/101 96/96/96
f 100/100/100 6/6/6 5/5/5
f 14/14/14 6/6/6 98/98/98
f 6/6/6 14/14/14 7/7/7
f 6/6/6 100/100/100 98/98/98
f 101/101/101 95/95/95 99/99/99
f 99/99/99 100/100/100 101/101/101
f 95/95/95 97/97/97 99/99/99
f 98/98/98 97/97/97 14/14/14
f 97/97/97 92/92/92 93/93/93
f 14/14/14 93/93/93 9/9/9
f 95/95/95 74/74/74 73/73/73
f 81/81/81 95/95/95 73/73/73
f 79/79/79 94/94/94 81/81/81
f 92/92/92 91/91/91 93/93/93
f 10/10/10 93/93/93 91/91/91
f 90/90/90 79/79/79 77/77/77
f 89/89/89 90/90/90 62/62/62
f 91/91/91 86/86/86 10/10/10
f 77/77/77 62/62/62 90/90/90
f 87/87/87 89/89/89 88/88/88
f 65/65/65 89/89/89 62/62/62
f 11/11/11 86/86/86 15/15/15
f 86/86/86 18/18/18 15/15/15
f 76/76/76 68/68/68 85/85/85
f 82/82/82 76/76/76 85/85/85
f 68/68/68 84/84/84 85/85/85
f 82/82/82 84/84/84 80/80/80
f 83/83/83 66/66/66 67/67/67
f 80/80/80 83/83/83 78/78/78
f 59/59/59 67/67/67 56/56/56
f 78/78/78 59/59/59 58/58/58
f 82/82/82 73/73/73 72/72/72
f 79/79/79 82/82/82 80/80/80
f 78/78/78 79/79/79 80/80/80
f 58/58/58 77/77/77 78/78/78
f 75/75/75 69/69/69 76/76/76
f 71/71/71 76/76/76 72/72/72
f 73/73/73 71/71/71 72/72/72
f 68/68/68 53/53/53 51/51/51
f 69/69/69 54/54/54 53/53/53
f 66/66/66 51/51/51 49/49/49
f 67/67/67 44/44/44 56/56/56
f 45/45/45 66/66/66 49/49/49
f 63/63/63 61/61/61 64/64/64
f 63/63/63 65/65/65 62/62/62
f 59/59/59 57/57/57 60/60/60
f 61/61/61 59/59/59 60/60/60
f 48/48/48 56/56/56 44/44/44
f 52/52/52 54/54/54 55/55/55
f 51/51/51 50/50/50 49/49/49
f 46/46/46 49/49/49 50/50/50
f 46/46/46 44/44/44 45/45/45
f 20/20/20 43/43/43 40/40/40
f 39/39/39 33/33/33 36/36/36
f 41/41/41 40/40/40 43/43/43
f 20/20/20 31/31/31 21/21/21
f 30/30/30 37/37/37 22/22/22
f 39/39/39 31/31/31 40/40/40
f 32/32/32 38/38/38 37/37/37
f 34/34/34 38/38/38 35/35/35
f 25/25/25 22/22/22 37/37/37
f 38/38/38 25/25/25 37/37/37
f 35/35/35 31/31/31 36/36/36
f 35/35/35 33/33/33 34/34/34
f 21/21/21 13/13/13 17/17/17
f 31/31/31 30/30/30 21/21/21
f 13/13/13 22/22/22 8/8/8
f 24/24/24 28/28/28 27/27/27
f 27/27/27 29/29/29 26/26/26
f 4/4/4 24/24/24 1/1/1
f 19/19/19 20/20/20 16/16/16
f 8/8/8 4/4/4 3/3/3
f 16/16/16 21/21/21 17/17/17
f 16/16/16 18/18/18 19/19/19
f 17/17/17 12/12/12 11/11/11
f 17/17/17 15/15/15 16/16/16
f 9/9/9 7/7/7 14/14/14
f 7/7/7 13/13/13 8/8/8
f 12/12/12 10/10/10 11/11/11
f 7/7/7 3/3/3 6/6/6
f 5/5/5 3/3/3 2/2/2
f 1/1/1 3/3/3 4/4/4
