v 65535 47186 32767
v 61144 47186 16383
v 32767 43 32767
v 49151 47186 4390
v 32767 47186 0
v 16383 47186 4390
v 4390 47186 16383
v 0 47186 32767
v 4390 47186 49151
v 16383 47186 61144
v 32767 47186 65535
v 49151 47186 61144
v 61144 47186 49151
v 53260 65407 32767
v 50515 65407 22520
v 43014 65407 15019
v 32767 65407 12274
v 22520 65407 15019
v 15019 65407 22520
v 12274 65407 32767
v 15019 65407 43014
v 22520 65407 50515
v 32767 65407 53260
v 43014 65407 50515
v 50515 65407 43014
v 65373 46836 32443
v 61166 46836 16744
v 33974 473 32443
v 61166 47536 16744
v 65373 47536 32443
v 53420 65185 32443
v 50815 65185 22720
v 33651 473 31883
v 60843 46836 16184
v 49350 46836 4691
v 65373 46836 33091
v 33974 473 33091
v 61166 46836 48790
v 49350 47536 4691
v 60843 47536 16184
v 50492 65185 22160
v 43374 65185 15042
v 33091 473 31560
v 48790 46836 4368
v 33091 46836 161
v 33091 47536 161
v 48790 47536 4368
v 42814 65185 14719
v 33091 65185 12114
v 32443 473 31560
v 32443 46836 161
v 16744 46836 4368
v 16744 47536 4368
v 32443 47536 161
v 32443 65185 12114
v 22720 65185 14719
v 31883 473 31883
v 16184 46836 4691
v 4691 46836 16184
v 4691 47536 16184
v 16184 47536 4691
v 22160 65185 15042
v 15042 65185 22160
v 31560 473 32443
v 4368 46836 16744
v 161 46836 32443
v 161 47536 32443
v 4368 47536 16744
v 14719 65185 22720
v 12114 65185 32443
v 31560 473 33091
v 161 46836 33091
v 4368 46836 48790
v 4368 47536 48790
v 161 47536 33091
v 12114 65185 33091
v 14719 65185 42814
v 31883 473 33651
v 4691 46836 49350
v 16184 46836 60843
v 16184 47536 60843
v 4691 47536 49350
v 15042 65185 43374
v 22160 65185 50492
v 32443 473 33974
v 16744 46836 61166
v 32443 46836 65373
v 32443 47536 65373
v 16744 47536 61166
v 22720 65185 50815
v 32443 65185 53420
v 33091 473 33974
v 33091 46836 65373
v 48790 46836 61166
v 48790 47536 61166
v 33091 47536 65373
v 33091 65185 53420
v 42813 65185 50815
v 33651 473 33651
v 49350 46836 60843
v 60843 46836 49350
v 60843 47536 49350
v 49350 47536 60843
v 43374 65185 50492
v 50492 65185 43374
v 65373 47536 33091
v 61166 47536 48790
v 50815 65185 42814
v 53420 65185 33091
v 50228 65535 22686
v 52929 65535 32767
v 50228 65535 42848
v 42848 65535 50228
v 32767 65535 52929
v 22686 65535 50228
v 15306 65535 42848
v 12605 65535 32767
v 15306 65535 22686
v 22686 65535 15306
v 32767 65535 12605
v 42848 65535 15306
v 61042 46836 16443
v 33572 0 32302
v 33697 0 32767
v 65416 46836 32767
v 65472 47186 32443
v 61252 47186 16695
v 65416 47536 32767
v 53463 65185 32767
v 53173 65443 32506
v 50570 65443 22790
v 50691 65185 22419
v 61042 47536 16443
v 60929 47186 16134
v 49400 47186 4605
v 49091 46836 4492
v 33232 0 31962
v 33572 0 33232
v 61042 46836 49091
v 61252 47186 48839
v 65472 47186 33091
v 50309 65443 22338
v 43196 65443 15225
v 43115 65185 14843
v 49091 47536 4492
v 48839 47186 4282
v 33091 47186 62
v 32767 46836 118
v 32767 0 31837
v 42744 65443 14964
v 33028 65443 12361
v 32767 65185 12071
v 32767 47536 118
v 32443 47186 62
v 16695 47186 4282
v 16443 46836 4492
v 32302 0 31962
v 32506 65443 12361
v 22790 65443 14964
v 22419 65185 14843
v 16443 47536 4492
v 16134 47186 4605
v 4605 47186 16134
v 4492 46836 16443
v 31962 0 32302
v 22338 65443 15225
v 15225 65443 22338
v 14843 65185 22419
v 4492 47536 16443
v 4282 47186 16695
v 62 47186 32443
v 118 46836 32767
v 31837 0 32767
v 14964 65443 22790
v 12361 65443 32506
v 12071 65185 32767
v 118 47536 32767
v 62 47186 33091
v 4282 47186 48839
v 4492 46836 49091
v 31962 0 33232
v 12361 65443 33028
v 14964 65443 42744
v 14843 65185 43115
v 4492 47536 49091
v 4605 47186 49400
v 16134 47186 60929
v 16443 46836 61042
v 32302 0 33572
v 15225 65443 43196
v 22338 65443 50309
v 22419 65185 50691
v 16443 47536 61042
v 16695 47186 61252
v 32443 47186 65472
v 32767 46836 65416
v 32767 0 33697
v 22790 65443 50570
v 32506 65443 53173
v 32767 65185 53463
v 32767 47536 65416
v 33091 47186 65472
v 48839 47186 61252
v 49091 46836 61042
v 33232 0 33572
v 33028 65443 53173
v 42744 65443 50570
v 43115 65185 50691
v 49091 47536 61042
v 49400 47186 60929
v 60929 47186 49400
v 43196 65443 50309
v 50309 65443 43196
v 50691 65185 43115
v 61042 47536 49091
v 50570 65443 42744
v 53173 65443 33028
f 26 28 27
f 34 33 35
f 44 43 45
f 51 50 52
f 58 57 59
f 65 64 66
f 72 71 73
f 79 78 80
f 86 85 87
f 93 92 94
f 100 99 101
f 38 37 36
f 31 30 29
f 39 42 41
f 46 48 47
f 53 55 54
f 60 62 61
f 67 69 68
f 76 75 74
f 84 83 82
f 88 91 90
f 96 98 97
f 102 105 104
f 106 108 107
f 120 117 116
f 28 123 122
f 127 122 2
f 123 124 3
f 28 125 124
f 125 126 1
f 27 127 126
f 30 129 128
f 126 128 1
f 31 130 14
f 31 131 130
f 32 132 15
f 29 133 132
f 133 127 2
f 29 126 127
f 34 135 134
f 122 134 2
f 135 136 4
f 33 137 136
f 137 123 3
f 33 122 123
f 37 139 138
f 124 138 3
f 139 140 13
f 38 141 140
f 141 125 1
f 37 124 125
f 40 132 133
f 134 133 2
f 41 142 15
f 41 143 142
f 42 144 16
f 39 145 144
f 145 135 4
f 40 134 135
f 45 147 146
f 136 146 4
f 147 148 5
f 43 149 148
f 149 137 3
f 43 136 137
f 47 144 145
f 146 145 4
f 48 150 16
f 48 151 150
f 49 152 17
f 46 153 152
f 153 147 5
f 46 146 147
f 52 155 154
f 148 154 5
f 155 156 6
f 50 157 156
f 157 149 3
f 50 148 149
f 54 152 153
f 154 153 5
f 55 158 17
f 55 159 158
f 56 160 18
f 53 161 160
f 161 155 6
f 53 154 155
f 59 163 162
f 156 162 6
f 163 164 7
f 57 165 164
f 165 157 3
f 57 156 157
f 61 160 161
f 162 161 6
f 62 166 18
f 62 167 166
f 63 168 19
f 60 169 168
f 169 163 7
f 60 162 163
f 65 171 170
f 164 170 7
f 171 172 8
f 64 173 172
f 173 165 3
f 64 164 165
f 68 168 169
f 170 169 7
f 69 174 19
f 70 175 174
f 70 176 20
f 67 177 176
f 177 171 8
f 68 170 171
f 73 179 178
f 172 178 8
f 179 180 9
f 71 181 180
f 181 173 3
f 71 172 173
f 75 176 177
f 178 177 8
f 76 182 20
f 76 183 182
f 77 184 21
f 74 185 184
f 185 179 9
f 75 178 179
f 79 187 186
f 180 186 9
f 187 188 10
f 78 189 188
f 189 181 3
f 78 180 181
f 82 184 185
f 186 185 9
f 83 190 21
f 84 191 190
f 84 192 22
f 81 193 192
f 193 187 10
f 81 186 187
f 86 195 194
f 188 194 10
f 195 196 11
f 85 197 196
f 197 189 3
f 85 188 189
f 89 192 193
f 194 193 10
f 90 198 22
f 91 199 198
f 91 200 23
f 88 201 200
f 201 195 11
f 88 194 195
f 94 203 202
f 196 202 11
f 203 204 12
f 92 205 204
f 205 197 3
f 92 196 197
f 96 200 201
f 202 201 11
f 97 206 23
f 98 207 206
f 98 208 24
f 95 209 208
f 209 203 12
f 95 202 203
f 100 211 210
f 204 210 12
f 211 139 13
f 99 138 139
f 138 205 3
f 99 204 205
f 103 208 209
f 210 209 12
f 104 212 24
f 105 213 212
f 105 214 25
f 102 215 214
f 215 211 13
f 103 210 211
f 107 214 215
f 140 215 13
f 108 216 25
f 108 217 216
f 109 129 14
f 106 128 129
f 128 141 1
f 106 140 141
f 112 216 217
f 111 217 14
f 112 213 25
f 112 212 213
f 113 207 24
f 114 206 207
f 114 199 23
f 114 198 199
f 115 191 22
f 115 190 191
f 116 183 21
f 117 182 183
f 117 175 20
f 117 174 175
f 118 167 19
f 119 166 167
f 119 159 18
f 120 158 159
f 120 151 17
f 121 150 151
f 121 143 16
f 110 142 143
f 110 131 15
f 111 130 131
f 111 131 110
f 110 15 142
f 110 143 121
f 121 16 150
f 121 151 120
f 120 17 158
f 120 159 119
f 119 18 166
f 119 167 118
f 118 19 174
f 118 174 117
f 117 20 182
f 117 183 116
f 116 21 190
f 116 190 115
f 115 22 198
f 115 198 114
f 114 23 206
f 114 207 113
f 113 24 212
f 113 212 112
f 112 25 216
f 111 14 130
f 112 217 111
f 107 140 106
f 106 141 128
f 106 129 109
f 109 14 217
f 109 217 108
f 108 25 214
f 107 215 140
f 108 214 107
f 103 211 102
f 102 211 215
f 102 214 105
f 105 25 213
f 105 212 104
f 104 24 208
f 103 209 210
f 104 208 103
f 100 204 99
f 99 205 138
f 99 139 101
f 101 139 211
f 100 210 204
f 101 211 100
f 96 202 95
f 95 203 209
f 95 208 98
f 98 24 207
f 98 206 97
f 97 23 200
f 96 201 202
f 97 200 96
f 93 196 92
f 92 197 205
f 92 204 94
f 94 204 203
f 93 202 196
f 94 202 93
f 89 194 88
f 88 195 201
f 88 200 91
f 91 23 199
f 91 198 90
f 90 22 192
f 89 193 194
f 90 192 89
f 86 188 85
f 85 189 197
f 85 196 87
f 87 196 195
f 86 194 188
f 87 195 86
f 82 186 81
f 81 187 193
f 81 192 84
f 84 22 191
f 84 190 83
f 83 21 184
f 82 185 186
f 83 184 82
f 79 180 78
f 78 181 189
f 78 188 80
f 80 188 187
f 79 186 180
f 80 187 79
f 75 179 74
f 74 179 185
f 74 184 77
f 77 21 183
f 77 183 76
f 76 20 176
f 75 177 178
f 76 176 75
f 72 172 71
f 71 173 181
f 71 180 73
f 73 180 179
f 72 178 172
f 73 178 72
f 68 171 67
f 67 171 177
f 67 176 70
f 70 20 175
f 70 174 69
f 69 19 168
f 68 169 170
f 69 168 68
f 65 164 64
f 64 165 173
f 64 172 66
f 66 172 171
f 65 170 164
f 66 171 65
f 61 162 60
f 60 163 169
f 60 168 63
f 63 19 167
f 63 167 62
f 62 18 160
f 61 161 162
f 62 160 61
f 58 156 57
f 57 157 165
f 57 164 59
f 59 164 163
f 58 162 156
f 59 162 58
f 54 154 53
f 53 155 161
f 53 160 56
f 56 18 159
f 56 159 55
f 55 17 152
f 54 153 154
f 55 152 54
f 51 148 50
f 50 149 157
f 50 156 52
f 52 156 155
f 51 154 148
f 52 154 51
f 47 146 46
f 46 147 153
f 46 152 49
f 49 17 151
f 49 151 48
f 48 16 144
f 47 145 146
f 48 144 47
f 44 136 43
f 43 137 149
f 43 148 45
f 45 148 147
f 44 146 136
f 45 146 44
f 40 135 39
f 39 135 145
f 39 144 42
f 42 16 143
f 42 143 41
f 41 15 132
f 40 133 134
f 41 132 40
f 37 125 36
f 36 125 141
f 36 141 38
f 38 140 139
f 37 138 124
f 38 139 37
f 34 122 33
f 33 123 137
f 33 136 35
f 35 136 135
f 34 134 122
f 35 135 34
f 30 126 29
f 29 127 133
f 29 132 32
f 32 15 131
f 32 131 31
f 31 14 129
f 30 128 126
f 31 129 30
f 27 126 26
f 26 126 125
f 26 125 28
f 28 124 123
f 27 122 127
f 28 122 27
f 110 121 111
f 114 113 112
f 111 121 120
f 111 114 112
f 111 116 114
f 120 116 111
f 120 119 118
f 114 116 115
f 120 118 117
f 109 108 106
f 102 104 103
f 95 98 96
f 88 90 89
f 84 82 81
f 76 74 77
f 70 69 67
f 63 62 60
f 56 55 53
f 49 48 46
f 39 41 40
f 31 29 32
